<?xml version="1.0" standalone="no"?>
<!DOCTYPE svg PUBLIC "-//W3C//DTD SVG 20010904//EN"
 "http://www.w3.org/TR/2001/REC-SVG-20010904/DTD/svg10.dtd">
<svg version="1.0" xmlns="http://www.w3.org/2000/svg"
 width="700.000000pt" height="700.000000pt" viewBox="0 0 700.000000 700.000000"
 preserveAspectRatio="xMidYMid meet">
<metadata>
Created by potrace 1.14, written by Peter Selinger 2001-2017
</metadata>
<g transform="translate(0.000000,700.000000) scale(0.100000,-0.100000)"
fill="#000000" stroke="none">
<path d="M2648 6774 c-2 -1 -39 -5 -83 -8 -76 -6 -99 -9 -170 -21 -16 -3 -50
-7 -75 -11 -205 -26 -517 -112 -705 -194 -496 -215 -812 -447 -1130 -831 -11
-13 -36 -46 -55 -74 -19 -27 -37 -52 -40 -55 -7 -6 -82 -126 -112 -178 -81
-141 -192 -416 -212 -524 -2 -13 -9 -41 -14 -63 -6 -22 -16 -71 -22 -108 -36
-230 -34 -432 6 -682 43 -270 157 -562 305 -783 16 -24 29 -45 29 -48 0 -3 5
-10 10 -17 6 -7 35 -46 66 -87 78 -106 95 -129 126 -164 16 -17 27 -36 25 -42
-1 -6 -121 -133 -268 -282 -146 -149 -278 -289 -293 -311 -46 -66 -39 -166 18
-244 30 -41 66 -57 149 -65 90 -9 2377 -8 2737 1 306 8 340 11 515 43 325 58
672 186 990 364 73 41 248 162 345 238 86 69 288 263 350 337 230 276 398 589
475 886 79 304 92 581 39 879 -59 336 -213 673 -442 970 -90 116 -325 349
-447 441 -289 220 -662 411 -965 494 -3 1 -12 5 -20 8 -16 6 -192 51 -245 62
-84 17 -256 46 -300 49 -154 14 -579 29 -587 20z m1633 -1786 c55 -45 91 -113
91 -172 0 -80 -57 -172 -122 -197 -38 -16 -395 -21 -1520 -22 -1094 -1 -1253
3 -1309 31 -73 37 -115 138 -97 235 9 46 59 121 92 136 14 6 58 14 98 17 39 4
73 8 75 10 2 2 598 2 1325 1 l1322 -2 45 -37z m-911 -847 c3 -4 20 -17 37 -30
39 -27 79 -92 88 -144 10 -54 -11 -120 -56 -171 -48 -54 -70 -62 -184 -66
-183 -7 -1712 -5 -1763 2 -78 10 -112 35 -153 112 -32 60 -24 160 17 218 49
68 84 80 248 86 78 2 142 5 143 6 7 5 1619 -7 1623 -13z"/>
<path d="M6126 4298 c-3 -24 -8 -74 -11 -113 -8 -93 -40 -299 -60 -380 -89
-375 -265 -730 -517 -1047 -83 -105 -313 -341 -402 -413 -301 -245 -634 -441
-968 -569 -168 -65 -494 -160 -618 -180 -19 -3 -44 -8 -56 -10 -12 -2 -43 -7
-70 -10 -27 -4 -65 -9 -84 -11 -19 -2 -69 -7 -110 -10 -41 -4 -102 -8 -135
-11 -33 -3 -373 -7 -755 -10 -382 -3 -699 -6 -703 -7 -12 -3 110 -174 197
-276 107 -128 272 -290 386 -382 54 -44 218 -159 226 -159 3 0 20 -10 37 -22
81 -59 341 -187 510 -252 272 -104 495 -159 782 -192 134 -15 469 -19 1665
-19 1308 0 1377 1 1422 18 93 36 151 141 129 236 -5 23 -17 52 -28 64 -61 71
-122 135 -328 345 -126 128 -231 237 -233 242 -2 5 30 51 71 102 136 170 254
356 333 525 39 82 95 231 110 292 2 9 13 52 24 96 22 88 26 113 44 262 12 101
14 352 2 428 -3 22 -10 69 -15 105 -21 136 -31 176 -83 335 -79 243 -237 522
-416 735 -79 95 -316 330 -332 330 -5 0 -11 -19 -14 -42z"/>
</g>
</svg>
