<?xml version='1.0' encoding='utf-8'?>
<!DOCTYPE svg PUBLIC '-//W3C//DTD SVG 1.1//EN' 'http://www.w3.org/Graphics/SVG/1.1/DTD/svg11.dtd'>
<svg version="1.1" xmlns="http://www.w3.org/2000/svg" viewBox="0 0 512 512" xmlns:xlink="http://www.w3.org/1999/xlink" enable-background="new 0 0 512 512">
  <g>
    <path d="m256,11c-135.1,0-245,109.9-245,245 0,135.1 109.9,245 245,245 135.1,0 245-109.9 245-245 0-135.1-109.9-245-245-245zm203.1,224.6h-98.9c-2.1-65.6-14.7-129.7-37.2-172.5 73.6,25.7 128.2,92.3 136.1,172.5zm-203.1,224.6c-24.6,0-59.6-70.9-63.5-183.8h126.9c-3.8,112.8-38.8,183.8-63.4,183.8zm-63.5-224.6c3.8-112.8 38.9-183.8 63.5-183.8 24.6,0 59.6,70.9 63.5,183.8h-127zm-3.5-172.5c-22.5,42.8-35.1,106.8-37.3,172.4h-98.8c7.9-80.1 62.5-146.7 136.1-172.4zm-136.1,213.3h98.9c2.2,65.6 14.8,129.7 37.3,172.4-73.7-25.6-128.3-92.2-136.2-172.4zm270.1,172.5c22.5-42.8 35.1-106.8 37.3-172.4h98.9c-8,80.1-62.6,146.7-136.2,172.4z"/>
  </g>
</svg>
